<svg xmlns="http://www.w3.org/2000/svg" xmlns:xlink="http://www.w3.org/1999/xlink" version="1.1" width="940" height="788" viewBox="0 0 940 788" xml:space="preserve">
<desc>Created with Fabric.js 3.5.0</desc>
<defs>
</defs>
<rect x="0" y="0" width="100%" height="100%" fill="rgba(255,255,255,0)"/>
<g transform="matrix(1 0 0 1 470 379.58)" style="" id="371968">
		
<path xml:space="preserve" font-family="Quicksand" font-size="72" font-weight="bold" style="stroke: none; stroke-width: 0; stroke-dasharray: none; stroke-linecap: butt; stroke-dashoffset: 0; stroke-linejoin: miter; stroke-miterlimit: 4; is-custom-font: none; font-file-url: none; fill: rgb(57,81,220); fill-rule: nonzero; opacity: 1; white-space: pre;" d="M-135.97-15.18L-135.97-15.18L-118.91-15.18Q-117.18-15.18-116.03-14.03Q-114.88-12.88-114.88-11.15L-114.88-11.15Q-114.88-9.49-116.03-8.38Q-117.18-7.26-118.91-7.26L-118.91-7.26L-135.97-7.26Q-137.70-7.26-138.85-8.41Q-140.00-9.57-140.00-11.29L-140.00-11.29Q-140.00-12.95-138.85-14.07Q-137.70-15.18-135.97-15.18ZM-128.27-24.18L-128.27-24.18Q-126.40-24.18-125.21-22.92Q-124.02-21.66-124.02-19.79L-124.02-19.79L-124.02 12.25Q-124.02 13.26-123.62 13.91Q-123.23 14.55-122.54 14.84Q-121.86 15.13-121.07 15.13L-121.07 15.13Q-120.20 15.13-119.48 14.81Q-118.76 14.48-117.83 14.48L-117.83 14.48Q-116.82 14.48-115.99 15.42Q-115.16 16.35-115.16 18.01L-115.16 18.01Q-115.16 20.03-117.36 21.32Q-119.56 22.62-122.08 22.62L-122.08 22.62Q-123.59 22.62-125.42 22.37Q-127.26 22.11-128.88 21.14Q-130.50 20.17-131.58 18.15Q-132.66 16.14-132.66 12.61L-132.66 12.61L-132.66-19.79Q-132.66-21.66-131.40-22.92Q-130.14-24.18-128.27-24.18ZM-70.31 3.39L-70.31 3.39Q-70.31 9.30-72.94 13.80Q-75.56 18.30-79.99 20.82Q-84.42 23.34-89.89 23.34L-89.89 23.34Q-95.36 23.34-99.79 20.82Q-104.22 18.30-106.85 13.80Q-109.48 9.30-109.48 3.39L-109.48 3.39Q-109.48-2.51-106.85-7.01Q-104.22-11.51-99.79-14.07Q-95.36-16.62-89.89-16.62L-89.89-16.62Q-84.42-16.62-79.99-14.07Q-75.56-11.51-72.94-7.01Q-70.31-2.51-70.31 3.39ZM-78.95 3.39L-78.95 3.39Q-78.95-0.28-80.42-2.98Q-81.90-5.68-84.38-7.19Q-86.87-8.70-89.89-8.70L-89.89-8.70Q-92.92-8.70-95.40-7.19Q-97.88-5.68-99.36-2.98Q-100.84-0.28-100.84 3.39L-100.84 3.39Q-100.84 6.99-99.36 9.69Q-97.88 12.39-95.40 13.91Q-92.92 15.42-89.89 15.42L-89.89 15.42Q-86.87 15.42-84.38 13.91Q-81.90 12.39-80.42 9.69Q-78.95 6.99-78.95 3.39ZM-43.16-16.62L-43.16-16.62Q-38.12-16.62-34.13-14.07Q-30.13-11.51-27.79-7.05Q-25.45-2.58-25.45 3.32L-25.45 3.32Q-25.45 9.23-27.79 13.73Q-30.13 18.23-34.06 20.78Q-37.98 23.34-42.88 23.34L-42.88 23.34Q-45.76 23.34-48.28 22.40Q-50.80 21.47-52.70 20.03Q-54.61 18.59-55.66 17.11Q-56.70 15.63-56.70 14.63L-56.70 14.63L-54.47 13.69L-54.47 18.95Q-54.47 20.82-55.69 22.08Q-56.92 23.34-58.79 23.34L-58.79 23.34Q-60.66 23.34-61.88 22.11Q-63.11 20.89-63.11 18.95L-63.11 18.95L-63.11-26.27Q-63.11-28.14-61.88-29.40Q-60.66-30.66-58.79-30.66L-58.79-30.66Q-56.92-30.66-55.69-29.40Q-54.47-28.14-54.47-26.27L-54.47-26.27L-54.47-7.98L-55.69-8.63Q-55.69-9.57-54.68-10.90Q-53.68-12.23-51.95-13.56Q-50.22-14.89-47.95-15.76Q-45.68-16.62-43.16-16.62ZM-44.24-8.70L-44.24-8.70Q-47.41-8.70-49.79-7.12Q-52.16-5.53-53.50-2.83Q-54.83-0.13-54.83 3.32L-54.83 3.32Q-54.83 6.71-53.50 9.48Q-52.16 12.25-49.79 13.83Q-47.41 15.42-44.24 15.42L-44.24 15.42Q-41.08 15.42-38.74 13.83Q-36.40 12.25-35.06 9.48Q-33.73 6.71-33.73 3.32L-33.73 3.32Q-33.73-0.13-35.06-2.83Q-36.40-5.53-38.74-7.12Q-41.08-8.70-44.24-8.70ZM-0.47 23.34L-0.47 23.34Q-6.59 23.34-11.09 20.78Q-15.59 18.23-18.00 13.83Q-20.41 9.44-20.41 3.90L-20.41 3.90Q-20.41-2.58-17.78-7.15Q-15.16-11.73-10.91-14.17Q-6.66-16.62-1.91-16.62L-1.91-16.62Q1.76-16.62 5.04-15.11Q8.32-13.60 10.84-10.97Q13.36-8.34 14.83-4.89Q16.31-1.43 16.31 2.46L16.31 2.46Q16.24 4.19 14.94 5.27Q13.64 6.35 11.92 6.35L11.92 6.35L-15.59 6.35L-17.75-0.85L8.68-0.85L7.09 0.59L7.09-1.36Q6.95-3.45 5.62-5.10Q4.28-6.76 2.30-7.73Q0.32-8.70-1.91-8.70L-1.91-8.70Q-4.07-8.70-5.94-8.13Q-7.81-7.55-9.18-6.18Q-10.55-4.81-11.34-2.51Q-12.13-0.21-12.13 3.32L-12.13 3.32Q-12.13 7.21-10.51 9.91Q-8.89 12.61-6.34 14.01Q-3.78 15.42-0.90 15.42L-0.90 15.42Q1.76 15.42 3.35 14.99Q4.93 14.55 5.90 13.94Q6.88 13.33 7.67 12.90L7.67 12.90Q8.96 12.25 10.12 12.25L10.12 12.25Q11.70 12.25 12.74 13.33Q13.79 14.41 13.79 15.85L13.79 15.85Q13.79 17.79 11.77 19.38L11.77 19.38Q9.90 20.96 6.52 22.15Q3.13 23.34-0.47 23.34ZM51.73-15.90L51.73-15.90Q53.60-15.90 54.83-14.64Q56.05-13.38 56.05-11.51L56.05-11.51L56.05 19.09Q56.05 25.71 53.57 29.64Q51.08 33.56 46.91 35.29Q42.73 37.02 37.55 37.02L37.55 37.02Q35.24 37.02 32.65 36.66Q30.06 36.30 28.40 35.58L28.40 35.58Q26.24 34.64 25.42 33.24Q24.59 31.83 25.09 30.25L25.09 30.25Q25.74 28.16 27.18 27.41Q28.62 26.65 30.20 27.23L30.20 27.23Q31.36 27.59 33.23 28.34Q35.10 29.10 37.55 29.10L37.55 29.10Q40.86 29.10 43.06 28.20Q45.25 27.30 46.37 25.17Q47.48 23.05 47.48 19.38L47.48 19.38L47.48 14.55L49.00 16.28Q47.77 18.66 45.94 20.21Q44.10 21.75 41.58 22.55Q39.06 23.34 35.82 23.34L35.82 23.34Q32.00 23.34 29.16 21.57Q26.32 19.81 24.73 16.68Q23.15 13.55 23.15 9.51L23.15 9.51L23.15-11.51Q23.15-13.38 24.37-14.64Q25.60-15.90 27.47-15.90L27.47-15.90Q29.34-15.90 30.56-14.64Q31.79-13.38 31.79-11.51L31.79-11.51L31.79 6.92Q31.79 11.60 33.84 13.51Q35.89 15.42 39.56 15.42L39.56 15.42Q42.08 15.42 43.81 14.45Q45.54 13.47 46.48 11.57Q47.41 9.66 47.41 6.92L47.41 6.92L47.41-11.51Q47.41-13.38 48.64-14.64Q49.86-15.90 51.73-15.90ZM82.84 23.34L82.84 23.34Q76.64 23.34 72.36 20.06Q68.08 16.79 65.84 10.92Q63.61 5.05 63.61-2.58L63.61-2.58Q63.61-10.29 65.84-16.12Q68.08-21.95 72.36-25.23Q76.64-28.50 82.84-28.50L82.84-28.50Q89.03-28.50 93.31-25.23Q97.60-21.95 99.83-16.12Q102.06-10.29 102.06-2.58L102.06-2.58Q102.06 5.05 99.83 10.92Q97.60 16.79 93.31 20.06Q89.03 23.34 82.84 23.34ZM82.84 14.70L82.84 14.70Q85.86 14.70 88.06 12.79Q90.25 10.88 91.48 7.03Q92.70 3.18 92.70-2.58L92.70-2.58Q92.70-8.41 91.48-12.23Q90.25-16.05 88.06-17.95Q85.86-19.86 82.84-19.86L82.84-19.86Q79.88-19.86 77.65-17.95Q75.42-16.05 74.20-12.23Q72.97-8.41 72.97-2.58L72.97-2.58Q72.97 3.18 74.20 7.03Q75.42 10.88 77.65 12.79Q79.88 14.70 82.84 14.70ZM110.41-15.90L110.41-15.90Q112.50-15.90 113.94-14.10L113.94-14.10L137.99 15.78Q138.92 16.93 138.92 18.37L138.92 18.37Q138.92 20.17 137.56 21.47Q136.19 22.76 134.53 22.76L134.53 22.76Q132.44 22.76 131.00 20.89L131.00 20.89L106.96-8.99Q106.02-10.14 106.02-11.58L106.02-11.58Q106.02-13.45 107.35-14.68Q108.68-15.90 110.41-15.90ZM110.48 22.69L110.48 22.69Q109.04 22.69 107.64 21.57Q106.24 20.46 106.24 18.87L106.24 18.87Q106.24 17.43 107.32 16.14L107.32 16.14L118.33 2.67L122.65 9.87L113.94 20.89Q112.57 22.69 110.48 22.69ZM134.46-15.90L134.46-15.90Q136.19-15.90 137.38-14.71Q138.56-13.53 138.56-12.01L138.56-12.01Q138.56-11.29 138.35-10.57Q138.13-9.85 137.56-9.21L137.56-9.21L126.68 4.04L122.15-2.22L131.00-13.96Q132.44-15.90 134.46-15.90Z"/></g>
<g transform="matrix(1 0 0 1 516.9773 426.5)" style="" id="502845">
		
<path xml:space="preserve" font-family="Quicksand" font-size="40" font-style="italic" font-weight="bold" style="stroke: none; stroke-width: 0; stroke-dasharray: none; stroke-linecap: butt; stroke-dashoffset: 0; stroke-linejoin: miter; stroke-miterlimit: 4; is-custom-font: none; font-file-url: none; fill: rgb(22,22,22); fill-rule: nonzero; opacity: 1; white-space: pre;" d="M1.85-8.83L1.85-8.83Q2.77-8.83 3.45-8.13Q4.13-7.43 4.13-6.35L4.13-6.35Q4.13-6.07 4.09-5.85Q4.05-5.63 3.97-5.43L3.97-5.43L-2.15 11.05Q-2.43 11.85-3.15 12.27Q-3.87 12.69-4.67 12.57L-4.67 12.57Q-6.03 12.49-6.71 11.05L-6.71 11.05L-10.67-0.35L-9.63-0.31L-13.35 11.05Q-14.03 12.49-15.39 12.57L-15.39 12.57Q-16.15 12.69-16.89 12.27Q-17.63 11.85-17.91 11.05L-17.91 11.05L-24.03-5.43Q-24.19-5.87-24.19-6.35L-24.19-6.35Q-24.19-7.31-23.55-8.07Q-22.91-8.83-21.79-8.83L-21.79-8.83Q-21.03-8.83-20.43-8.47Q-19.83-8.11-19.59-7.31L-19.59-7.31L-14.75 5.81L-15.75 5.73L-12.11-4.15Q-11.47-5.63-9.91-5.63L-9.91-5.63Q-9.03-5.63-8.57-5.25Q-8.11-4.87-7.83-4.15L-7.83-4.15L-4.19 5.73L-5.39 5.89L-0.47-7.31Q0.01-8.83 1.85-8.83ZM17.81 12.97L17.81 12.97Q14.41 12.97 11.91 11.55Q9.41 10.13 8.07 7.69Q6.73 5.25 6.73 2.17L6.73 2.17Q6.73-1.43 8.19-3.97Q9.65-6.51 12.01-7.87Q14.37-9.23 17.01-9.23L17.01-9.23Q19.05-9.23 20.87-8.39Q22.69-7.55 24.09-6.09Q25.49-4.63 26.31-2.71Q27.13-0.79 27.13 1.37L27.13 1.37Q27.09 2.33 26.37 2.93Q25.65 3.53 24.69 3.53L24.69 3.53L9.41 3.53L8.21-0.47L22.89-0.47L22.01 0.33L22.01-0.75Q21.93-1.91 21.19-2.83Q20.45-3.75 19.35-4.29Q18.25-4.83 17.01-4.83L17.01-4.83Q15.81-4.83 14.77-4.51Q13.73-4.19 12.97-3.43Q12.21-2.67 11.77-1.39Q11.33-0.11 11.33 1.85L11.33 1.85Q11.33 4.01 12.23 5.51Q13.13 7.01 14.55 7.79Q15.97 8.57 17.57 8.57L17.57 8.57Q19.05 8.57 19.93 8.33Q20.81 8.09 21.35 7.75Q21.89 7.41 22.33 7.17L22.33 7.17Q23.05 6.81 23.69 6.81L23.69 6.81Q24.57 6.81 25.15 7.41Q25.73 8.01 25.73 8.81L25.73 8.81Q25.73 9.89 24.61 10.77L24.61 10.77Q23.57 11.65 21.69 12.31Q19.81 12.97 17.81 12.97ZM36.33-14.59L36.33 10.13Q36.33 11.17 35.63 11.87Q34.93 12.57 33.89 12.57L33.89 12.57Q32.89 12.57 32.21 11.87Q31.53 11.17 31.53 10.13L31.53 10.13L31.53-14.59Q31.53-15.63 32.23-16.33Q32.93-17.03 33.97-17.03L33.97-17.03Q35.01-17.03 35.67-16.33Q36.33-15.63 36.33-14.59L36.33-14.59ZM50.85-9.23L50.85-9.23Q53.13-9.23 54.83-8.75Q56.53-8.27 57.47-7.41Q58.41-6.55 58.41-5.35L58.41-5.35Q58.41-4.55 57.93-3.85Q57.45-3.15 56.53-3.15L56.53-3.15Q55.89-3.15 55.47-3.33Q55.05-3.51 54.73-3.79Q54.41-4.07 53.97-4.31L53.97-4.31Q53.57-4.55 52.75-4.69Q51.93-4.83 51.53-4.83L51.53-4.83Q49.49-4.83 48.07-3.95Q46.65-3.07 45.89-1.57Q45.13-0.07 45.13 1.89L45.13 1.89Q45.13 3.81 45.91 5.31Q46.69 6.81 48.07 7.69Q49.45 8.57 51.25 8.57L51.25 8.57Q52.25 8.57 52.97 8.45Q53.69 8.33 54.17 8.09L54.17 8.09Q54.73 7.77 55.17 7.41Q55.61 7.05 56.49 7.05L56.49 7.05Q57.53 7.05 58.09 7.71Q58.65 8.37 58.65 9.33L58.65 9.33Q58.65 10.33 57.53 11.15Q56.41 11.97 54.59 12.47Q52.77 12.97 50.65 12.97L50.65 12.97Q47.49 12.97 45.17 11.51Q42.85 10.05 41.59 7.53Q40.33 5.01 40.33 1.89L40.33 1.89Q40.33-1.39 41.67-3.89Q43.01-6.39 45.39-7.81Q47.77-9.23 50.85-9.23ZM82.69 1.89L82.69 1.89Q82.69 5.17 81.23 7.67Q79.77 10.17 77.31 11.57Q74.85 12.97 71.81 12.97L71.81 12.97Q68.77 12.97 66.31 11.57Q63.85 10.17 62.39 7.67Q60.93 5.17 60.93 1.89L60.93 1.89Q60.93-1.39 62.39-3.89Q63.85-6.39 66.31-7.81Q68.77-9.23 71.81-9.23L71.81-9.23Q74.85-9.23 77.31-7.81Q79.77-6.39 81.23-3.89Q82.69-1.39 82.69 1.89ZM77.89 1.89L77.89 1.89Q77.89-0.15 77.07-1.65Q76.25-3.15 74.87-3.99Q73.49-4.83 71.81-4.83L71.81-4.83Q70.13-4.83 68.75-3.99Q67.37-3.15 66.55-1.65Q65.73-0.15 65.73 1.89L65.73 1.89Q65.73 3.89 66.55 5.39Q67.37 6.89 68.75 7.73Q70.13 8.57 71.81 8.57L71.81 8.57Q73.49 8.57 74.87 7.73Q76.25 6.89 77.07 5.39Q77.89 3.89 77.89 1.89ZM97.93-9.23L97.93-9.23Q101.13-9.23 102.65-7.69Q104.17-6.15 104.65-3.71L104.65-3.71L103.97-4.07L104.29-4.71Q104.77-5.63 105.77-6.69Q106.77-7.75 108.19-8.49Q109.61-9.23 111.37-9.23L111.37-9.23Q114.25-9.23 115.75-7.99Q117.25-6.75 117.81-4.69Q118.37-2.63 118.37-0.11L118.37-0.11L118.37 10.13Q118.37 11.17 117.69 11.87Q117.01 12.57 115.97 12.57L115.97 12.57Q114.93 12.57 114.25 11.87Q113.57 11.17 113.57 10.13L113.57 10.13L113.57-0.11Q113.57-1.43 113.25-2.49Q112.93-3.55 112.09-4.19Q111.25-4.83 109.69-4.83L109.69-4.83Q108.17-4.83 107.09-4.19Q106.01-3.55 105.47-2.49Q104.93-1.43 104.93-0.11L104.93-0.11L104.93 10.13Q104.93 11.17 104.25 11.87Q103.57 12.57 102.53 12.57L102.53 12.57Q101.49 12.57 100.81 11.87Q100.13 11.17 100.13 10.13L100.13 10.13L100.13-0.11Q100.13-1.43 99.81-2.49Q99.49-3.55 98.65-4.19Q97.81-4.83 96.25-4.83L96.25-4.83Q94.73-4.83 93.65-4.19Q92.57-3.55 92.03-2.49Q91.49-1.43 91.49-0.11L91.49-0.11L91.49 10.13Q91.49 11.17 90.81 11.87Q90.13 12.57 89.09 12.57L89.09 12.57Q88.05 12.57 87.37 11.87Q86.69 11.17 86.69 10.13L86.69 10.13L86.69-6.39Q86.69-7.43 87.37-8.13Q88.05-8.83 89.09-8.83L89.09-8.83Q90.13-8.83 90.81-8.13Q91.49-7.43 91.49-6.39L91.49-6.39L91.49-4.67L90.89-4.79Q91.25-5.47 91.89-6.25Q92.53-7.03 93.45-7.71Q94.37-8.39 95.49-8.81Q96.61-9.23 97.93-9.23ZM133.45 12.97L133.45 12.97Q130.05 12.97 127.55 11.55Q125.05 10.13 123.71 7.69Q122.37 5.25 122.37 2.17L122.37 2.17Q122.37-1.43 123.83-3.97Q125.29-6.51 127.65-7.87Q130.01-9.23 132.65-9.23L132.65-9.23Q134.69-9.23 136.51-8.39Q138.33-7.55 139.73-6.09Q141.13-4.63 141.95-2.71Q142.77-0.79 142.77 1.37L142.77 1.37Q142.73 2.33 142.01 2.93Q141.29 3.53 140.33 3.53L140.33 3.53L125.05 3.53L123.85-0.47L138.53-0.47L137.65 0.33L137.65-0.75Q137.57-1.91 136.83-2.83Q136.09-3.75 134.99-4.29Q133.89-4.83 132.65-4.83L132.65-4.83Q131.45-4.83 130.41-4.51Q129.37-4.19 128.61-3.43Q127.85-2.67 127.41-1.39Q126.97-0.11 126.97 1.85L126.97 1.85Q126.97 4.01 127.87 5.51Q128.77 7.01 130.19 7.79Q131.61 8.57 133.21 8.57L133.21 8.57Q134.69 8.57 135.57 8.33Q136.45 8.09 136.99 7.75Q137.53 7.41 137.97 7.17L137.97 7.17Q138.69 6.81 139.33 6.81L139.33 6.81Q140.21 6.81 140.79 7.41Q141.37 8.01 141.37 8.81L141.37 8.81Q141.37 9.89 140.25 10.77L140.25 10.77Q139.21 11.65 137.33 12.31Q135.45 12.97 133.45 12.97ZM149.53 3.73L149.53 3.73Q148.17 3.73 148.05 2.21L148.05 2.21L146.89-12.51Q146.81-13.75 147.55-14.59Q148.29-15.43 149.49-15.43L149.49-15.43Q150.69-15.43 151.45-14.59Q152.21-13.75 152.09-12.51L152.09-12.51L150.97 2.21Q150.85 3.73 149.53 3.73ZM149.77 12.57L149.25 12.57Q148.09 12.57 147.47 11.95Q146.85 11.33 146.85 10.17L146.85 10.17L146.85 9.49Q146.85 8.33 147.47 7.71Q148.09 7.09 149.25 7.09L149.25 7.09L149.77 7.09Q150.93 7.09 151.55 7.71Q152.17 8.33 152.17 9.49L152.17 9.49L152.17 10.17Q152.17 11.33 151.55 11.95Q150.93 12.57 149.77 12.57L149.77 12.57Z"/></g>
</svg>